<svg width="40" height="40" viewBox="0 0 40 40" fill="none" xmlns="http://www.w3.org/2000/svg">
<path d="M36.4844 0H3.51562C1.57711 0 0 1.57711 0 3.51562V9.375H40V3.51562C40 1.57711 38.4229 0 36.4844 0ZM5.9375 5.85938C5.29031 5.85938 4.76562 5.33469 4.76562 4.6875C4.76562 4.04031 5.29031 3.51562 5.9375 3.51562C6.58469 3.51562 7.10938 4.04031 7.10938 4.6875C7.10938 5.33469 6.58469 5.85938 5.9375 5.85938ZM10.625 5.85938C9.97781 5.85938 9.45312 5.33469 9.45312 4.6875C9.45312 4.04031 9.97781 3.51562 10.625 3.51562C11.2722 3.51562 11.7969 4.04031 11.7969 4.6875C11.7969 5.33469 11.2722 5.85938 10.625 5.85938ZM15.3125 5.85938C14.6653 5.85938 14.1406 5.33469 14.1406 4.6875C14.1406 4.04031 14.6653 3.51562 15.3125 3.51562C15.9597 3.51562 16.4844 4.04031 16.4844 4.6875C16.4844 5.33469 15.9597 5.85938 15.3125 5.85938Z" fill="#319F1C"/>
<path d="M0 27.1094C0 28.6661 1.01742 29.9889 2.42188 30.4499V25.5469C2.42188 23.6084 3.99898 22.0312 5.9375 22.0312H9.45312V17.7344C9.45312 15.7959 11.0302 14.2188 12.9688 14.2188H34.0625C36.001 14.2188 37.5781 15.7959 37.5781 17.7344V30.4499C38.9826 29.9889 40 28.6661 40 27.1094V11.7188H0V27.1094Z" fill="#319F1C"/>
<path d="M4.76562 25.5469V37.6562C4.76562 38.9507 5.81492 40 7.10938 40C8.40383 40 9.45312 38.9507 9.45312 37.6562V24.375H5.9375C5.29031 24.375 4.76562 24.8997 4.76562 25.5469Z" fill="#319F1C"/>
<path d="M18.4375 22.4219H28.5938V24.7656H18.4375V22.4219Z" fill="#319F1C"/>
<path d="M34.0625 16.5625H12.9688C12.3216 16.5625 11.7969 17.0872 11.7969 17.7344V22.0312V37.6562C11.7969 38.5098 11.5665 39.3099 11.1663 40H32.8906C34.1851 40 35.2344 38.9507 35.2344 37.6562V17.7344C35.2344 17.0872 34.7097 16.5625 34.0625 16.5625ZM29.7656 36.4844H17.2656C16.6184 36.4844 16.0938 35.9597 16.0938 35.3125C16.0938 34.6653 16.6184 34.1406 17.2656 34.1406H29.7656C30.4128 34.1406 30.9375 34.6653 30.9375 35.3125C30.9375 35.9597 30.4128 36.4844 29.7656 36.4844ZM29.7656 31.7969H17.2656C16.6184 31.7969 16.0938 31.2722 16.0938 30.625C16.0938 29.9778 16.6184 29.4531 17.2656 29.4531H29.7656C30.4128 29.4531 30.9375 29.9778 30.9375 30.625C30.9375 31.2722 30.4128 31.7969 29.7656 31.7969ZM30.9375 25.9375C30.9375 26.5847 30.4128 27.1094 29.7656 27.1094H17.2656C16.6184 27.1094 16.0938 26.5847 16.0938 25.9375V21.25C16.0938 20.6028 16.6184 20.0781 17.2656 20.0781H29.7656C30.4128 20.0781 30.9375 20.6028 30.9375 21.25V25.9375Z" fill="#319F1C"/>
</svg>
