<svg width="40" height="40" viewBox="0 0 40 40" fill="none" xmlns="http://www.w3.org/2000/svg">
<g clip-path="url(#clip0_2_317)">
<path d="M12.9411 21.1763V17.6469H10.5882V21.1763C10.5882 21.8251 11.116 22.3527 11.7647 22.3527C12.4134 22.3527 12.9411 21.8251 12.9411 21.1763Z" fill="#319F1C"/>
<path d="M36.0392 7.05879H28.2353V5.80389C28.2353 3.90098 26.6872 2.35291 24.7843 2.35291H15.2157C13.3128 2.35291 11.7647 3.90098 11.7647 5.80389V7.05879H3.96078C1.77678 7.05879 0 8.83557 0 11.0196V18.8235H8.23529V15.2941H15.2941V18.8235H24.7059V15.2941H31.7647V18.8235H40V11.0196C40 8.83557 38.2232 7.05879 36.0392 7.05879ZM14.1176 7.05879V5.80389C14.1176 5.1984 14.6102 4.70585 15.2157 4.70585H24.7843C25.3898 4.70585 25.8824 5.1984 25.8824 5.80389V7.05879H14.1176Z" fill="#319F1C"/>
<path d="M29.4119 21.1763V17.6469H27.059V21.1763C27.059 21.8251 27.5867 22.3527 28.2354 22.3527C28.8842 22.3527 29.4119 21.8251 29.4119 21.1763Z" fill="#319F1C"/>
<path d="M28.2352 24.7059C26.2891 24.7059 24.7058 23.1227 24.7058 21.1765H15.294C15.294 23.1227 13.7107 24.7059 11.7646 24.7059C9.81849 24.7059 8.2352 23.1227 8.2352 21.1765H2.35284V33.6863C2.35284 35.8703 4.12963 37.6471 6.31363 37.6471H8.2352V27.0589H31.7646V37.6471H33.6862C35.8702 37.6471 37.647 35.8703 37.647 33.6863V21.1765H31.7646C31.7646 23.1227 30.1814 24.7059 28.2352 24.7059Z" fill="#319F1C"/>
<path d="M25.8823 32.9413H23.5294V29.4119H10.5882V37.6472H29.4117V29.4119H25.8823V32.9413Z" fill="#319F1C"/>
</g>
<defs>
<clipPath id="clip0_2_317">
<rect width="40" height="40" fill="white"/>
</clipPath>
</defs>
</svg>
