<svg width="40" height="40" viewBox="0 0 40 40" fill="none" xmlns="http://www.w3.org/2000/svg">
<g clip-path="url(#clip0_2_339)">
<path d="M40 17.8489L34.1406 20.5802V33.8268L40 36.5581V17.8489Z" fill="#319F1C"/>
<path d="M31.7969 20.9503H27.2829V15.8152C25.5329 17.7806 22.9853 19.0207 20.1529 19.0207C16.8564 19.0207 13.945 17.3413 12.2289 14.7932C10.9582 17.2992 8.35645 19.0207 5.35989 19.0207C3.27801 19.0207 1.38692 18.1894 0.00012207 16.8418V37.7299H27.283V33.4566H31.7969V20.9503ZM4.68786 25.7765H22.5951V33.0421H4.68786V25.7765Z" fill="#319F1C"/>
<path d="M5.35982 16.677C8.31123 16.677 10.7124 14.276 10.7124 11.3245C10.7124 8.37322 8.31131 5.97205 5.35982 5.97205C2.4085 5.97205 0.00732422 8.37314 0.00732422 11.3245C0.00740234 14.2759 2.4085 16.677 5.35982 16.677Z" fill="#319F1C"/>
<path d="M21.3813 16.5591C25.3 15.8788 27.9252 12.1506 27.2449 8.23184C26.5646 4.31312 22.8364 1.68787 18.9177 2.36817C14.999 3.04848 12.3737 6.77672 13.054 10.6954C13.7343 14.6142 17.4626 17.2394 21.3813 16.5591Z" fill="#319F1C"/>
<path d="M7.03168 28.1202H9.6098V30.6984H7.03168V28.1202Z" fill="#319F1C"/>
<path d="M11.9536 28.1202H20.2514V30.6984H11.9536V28.1202Z" fill="#319F1C"/>
</g>
<defs>
<clipPath id="clip0_2_339">
<rect width="40" height="40" fill="white"/>
</clipPath>
</defs>
</svg>
